<svg width="164" height="181" viewBox="0 0 164 181" fill="none" xmlns="http://www.w3.org/2000/svg">
<path fill-rule="evenodd" clip-rule="evenodd" d="M77.2545 1.60599C80.1685 -0.0288196 83.7559 -0.0288196 86.6655 1.60599C101.063 9.68482 144.389 34.0024 158.79 42.0813C161.704 43.7117 163.498 46.7321 163.498 50.0017C163.498 66.1589 163.498 114.791 163.498 130.948C163.498 134.217 161.704 137.238 158.79 138.873C144.393 146.951 101.067 171.269 86.6655 179.348C83.752 180.983 80.1642 180.983 77.2545 179.348C62.857 171.269 19.5314 146.951 5.12957 138.873C2.21994 137.238 0.42627 134.222 0.42627 130.953C0.42627 114.795 0.42627 66.1632 0.42627 50.0056C0.42627 46.7365 2.21994 43.7161 5.13394 42.0813C19.5271 34.0024 62.8614 9.68482 77.2545 1.60599Z" fill="#5C6BC0"/>
<path fill-rule="evenodd" clip-rule="evenodd" d="M1.73072 135.113C0.589508 133.586 0.42627 132.136 0.42627 130.184C0.42627 114.12 0.42627 65.7677 0.42627 49.6999C0.42627 46.4477 2.21557 43.4448 5.12082 41.8232C19.4668 33.7915 62.6467 9.61522 76.9927 1.57915C79.8979 -0.0469169 83.8331 -0.0124231 86.7384 1.61364C101.085 9.64486 144.118 33.6156 158.464 41.6468C159.623 42.2993 160.507 43.0844 161.297 44.1182L1.73072 135.113Z" fill="#5C6BC0"/>
<path fill-rule="evenodd" clip-rule="evenodd" d="M81.9622 30.4121C115.122 30.4121 142.042 57.3255 142.042 90.4774C142.042 123.629 115.122 150.543 81.9622 150.543C48.803 150.543 21.8833 123.629 21.8833 90.4774C21.8833 57.3255 48.803 30.4121 81.9622 30.4121ZM81.9622 60.4445C98.5396 60.4445 112.002 73.8995 112.002 90.4774C112.002 107.051 98.5396 120.51 81.9622 120.51C65.3848 120.51 51.9225 107.051 51.9225 90.4774C51.9225 73.8995 65.3804 60.4445 81.9622 60.4445Z" fill="white"/>
<path fill-rule="evenodd" clip-rule="evenodd" d="M161.288 44.1597C163.503 46.2322 163.46 49.3556 163.46 51.8139C163.46 68.0959 163.322 114.406 163.498 130.688C163.516 132.387 162.954 134.177 162.112 135.524L80.2158 90.4746L161.288 44.1597Z" fill="#5C6BC0"/>
<path fill-rule="evenodd" clip-rule="evenodd" d="M124.876 73.3137H129.167V107.636H124.876V73.3137ZM137.75 73.3137H142.042V107.636H137.75V73.3137Z" fill="white"/>
<path fill-rule="evenodd" clip-rule="evenodd" d="M116.293 94.7663H150.624V99.0566H116.293V94.7663ZM116.293 81.8953H150.624V86.1856H116.293V81.8953Z" fill="white"/>
</svg>
